<svg xmlns="http://www.w3.org/2000/svg" viewBox="0 0 100 100" width="100" height="100">
  <defs>
    <linearGradient id="bg" x1="0%" y1="0%" x2="100%" y2="100%">
      <stop offset="0%" style="stop-color:#714B67;stop-opacity:1"/>
      <stop offset="100%" style="stop-color:#513A4A;stop-opacity:1"/>
    </linearGradient>
  </defs>
  <!-- Background -->
  <rect width="100" height="100" rx="15" ry="15" fill="url(#bg)"/>
  <!-- Barcode bars -->
  <rect x="15" y="22" width="4" height="40" rx="1" fill="#fff"/>
  <rect x="22" y="22" width="2" height="40" rx="1" fill="#fff"/>
  <rect x="27" y="22" width="5" height="40" rx="1" fill="#fff"/>
  <rect x="35" y="22" width="3" height="40" rx="1" fill="#fff"/>
  <rect x="41" y="22" width="2" height="40" rx="1" fill="#fff"/>
  <rect x="46" y="22" width="4" height="40" rx="1" fill="#fff"/>
  <rect x="53" y="22" width="2" height="40" rx="1" fill="#fff"/>
  <rect x="58" y="22" width="5" height="40" rx="1" fill="#fff"/>
  <rect x="66" y="22" width="3" height="40" rx="1" fill="#fff"/>
  <rect x="72" y="22" width="2" height="40" rx="1" fill="#fff"/>
  <rect x="77" y="22" width="4" height="40" rx="1" fill="#fff"/>
  <rect x="84" y="22" width="2" height="40" rx="1" fill="#fff"/>
  <!-- Scan line -->
  <rect x="12" y="40" width="76" height="2" rx="1" fill="#E8C95A" opacity="0.8"/>
  <!-- Box icon bottom -->
  <rect x="25" y="68" width="50" height="22" rx="3" fill="none" stroke="#fff" stroke-width="2"/>
  <line x1="25" y1="75" x2="75" y2="75" stroke="#fff" stroke-width="1.5" opacity="0.5"/>
  <rect x="42" y="65" width="16" height="6" rx="2" fill="#fff" opacity="0.7"/>
</svg>
